<svg xmlns="http://www.w3.org/2000/svg" viewBox="0 0 394.41 402.02" role="img" aria-label="Kluvs logo">
  <title>Kluvs</title>
  <g fill="#D16D30" stroke="#D16D30" stroke-width="14" stroke-linejoin="round" stroke-linecap="round">
    <polygon fill="none" points="11,68.51 110.6,11 197.21,61 283.81,11 383.41,68.51 383.41,183.52 296.81,233.52 296.81,333.52 197.21,391.02 97.6,333.52 97.6,233.52 11,183.52"></polygon>
    <polygon stroke="none" points="191.58,79.26 191.58,172.76 110.6,219.51 29.63,172.76 29.63,79.26 110.6,32.51"></polygon>
    <polygon stroke="none" points="364.78,79.26 364.78,172.76 283.81,219.51 202.83,172.76 202.83,79.26 283.81,32.51"></polygon>
    <polygon stroke="none" points="278.18,229.26 278.18,322.76 197.21,369.51 116.23,322.76 116.23,229.26 197.21,182.51"></polygon>
  </g>
</svg>